<svg width="32" height="32" viewBox="0 0 32 32" fill="none" xmlns="http://www.w3.org/2000/svg">
<path d="M32 18.8561C32 28.2446 28.2446 32.0001 18.856 32.0001C9.46741 32.0001 5.71198 28.2446 5.71198 18.8561C5.71198 9.46747 9.46741 5.71204 18.856 5.71204C28.2446 5.71204 32 9.46747 32 18.8561Z" fill="#64DAFF"/>
<path d="M26.288 13.144C26.288 22.5326 22.5326 26.288 13.144 26.288C3.75543 26.288 0 22.5326 0 13.144C0 3.75543 3.75543 0 13.144 0C22.5326 0 26.288 3.75543 26.288 13.144Z" fill="#FF1010"/>
<path fill-rule="evenodd" clip-rule="evenodd" d="M13.1441 26.2881C22.5327 26.2881 26.2881 22.5327 26.2881 13.1441C26.2881 10.5968 26.0116 8.46412 25.4212 6.70867C23.6658 6.11826 21.5331 5.8418 18.9858 5.8418C9.59723 5.8418 5.8418 9.59723 5.8418 18.9858C5.8418 21.5331 6.11826 23.6658 6.70867 25.4212C8.46412 26.0116 10.5968 26.2881 13.1441 26.2881Z" fill="#3632EA"/>
<path d="M16.2451 20.8946C15.2282 20.8946 14.3538 20.699 13.6218 20.3079C12.8899 19.9168 12.3256 19.3552 11.9289 18.6233C11.5378 17.8914 11.3422 17.0141 11.3422 15.9916C11.3422 14.9747 11.5378 14.1003 11.9289 13.3684C12.3256 12.6364 12.8899 12.0777 13.6218 11.6921C14.3538 11.301 15.2226 11.1055 16.2284 11.1055C16.8933 11.1055 17.5051 11.1921 18.0638 11.3653C18.6226 11.5385 19.1059 11.7843 19.5137 12.1028C19.9272 12.4213 20.2457 12.8096 20.4692 13.2678C20.6312 13.6086 20.7122 13.9271 20.7122 14.2232C20.7122 14.6535 20.553 14.9831 20.2345 15.2122C19.9216 15.4413 19.5612 15.5558 19.1534 15.5558C18.8125 15.5558 18.5276 15.4888 18.2985 15.3547C18.0694 15.2206 17.8766 15.0222 17.7202 14.7596C17.5135 14.4132 17.3011 14.1646 17.0832 14.0137C16.8709 13.8573 16.6362 13.779 16.3792 13.779C15.9211 13.779 15.5774 13.9634 15.3484 14.3322C15.1249 14.701 15.0131 15.2541 15.0131 15.9916C15.0131 16.7292 15.1221 17.2851 15.34 17.6595C15.5635 18.0338 15.8987 18.221 16.3457 18.221C16.6586 18.221 16.9184 18.1428 17.1251 17.9863C17.3319 17.8299 17.5107 17.6483 17.6615 17.4416C17.8906 17.1175 18.1225 16.8772 18.3572 16.7208C18.5974 16.5588 18.9075 16.4777 19.2875 16.4777C19.6842 16.4777 20.0334 16.6007 20.3351 16.8465C20.6368 17.0868 20.7877 17.4276 20.7877 17.869C20.7877 18.0087 20.7681 18.1568 20.729 18.3132C20.6899 18.4641 20.6173 18.6345 20.5111 18.8244C20.2876 19.2323 19.9607 19.5927 19.5305 19.9056C19.1003 20.2185 18.603 20.4615 18.0387 20.6348C17.4744 20.808 16.8765 20.8946 16.2451 20.8946Z" fill="white"/>
</svg>
